<?xml version="1.0" encoding="UTF-8" standalone="no"?>
<!DOCTYPE svg PUBLIC "-//W3C//DTD SVG 1.1//EN" "http://www.w3.org/Graphics/SVG/1.1/DTD/svg11.dtd">
<svg width="100%" height="100%" viewBox="0 0 3584 1667" version="1.1" xmlns="http://www.w3.org/2000/svg" xmlns:xlink="http://www.w3.org/1999/xlink" xml:space="preserve" xmlns:serif="http://www.serif.com/" style="fill-rule:evenodd;clip-rule:evenodd;stroke-linejoin:round;stroke-miterlimit:2;">
    <g transform="matrix(4.16667,0,0,4.16667,859.09,333.43)">
        <path d="M0,223.562C16.73,223.562 31.282,220.529 43.662,214.471C56.039,208.413 65.514,199.746 72.088,188.478C78.658,177.211 81.947,163.894 81.947,148.529L81.947,19.974L34.059,19.974L34.059,145.968C34.059,156.724 31.026,165.175 24.968,171.321C18.906,177.467 10.668,180.54 0.256,180.54C-10.159,180.54 -18.398,177.467 -24.456,171.321C-30.518,165.175 -33.547,156.724 -33.547,145.968L-33.547,19.974L-93.983,19.974C-102.01,19.974 -106.019,23.988 -106.019,32.01L-106.019,41.742C-106.019,48.4 -102.778,52.925 -96.288,55.314L-91.935,56.595C-85.276,58.643 -81.947,63.169 -81.947,70.167L-81.947,148.529C-81.947,163.894 -78.662,177.211 -72.088,188.478C-65.518,199.746 -56.043,208.413 -43.662,214.471C-31.286,220.529 -16.734,223.562 0,223.562M133.164,120.36L133.164,219.977L181.052,219.977L181.052,129.835C181.052,122.496 183.013,116.691 186.942,112.421C190.867,108.156 196.245,106.019 203.075,106.019C209.902,106.019 215.279,108.156 219.209,112.421C223.134,116.691 225.099,122.496 225.099,129.835L225.099,219.977L272.987,219.977L272.987,123.177C272.987,105.595 268.333,91.638 259.03,81.307C249.723,70.979 237.219,65.814 221.514,65.814C211.27,65.814 202.391,68.078 194.881,72.6C187.366,77.125 181.392,83.656 176.955,92.19L176.955,69.911L121.128,69.911C113.102,69.911 109.092,73.924 109.092,81.947L109.092,91.678C109.092,98.681 112.333,103.202 118.823,105.251L123.177,106.531C129.835,108.752 133.164,113.361 133.164,120.36M323.179,120.36L323.179,219.977L371.067,219.977L371.067,69.911L311.143,69.911C303.117,69.911 299.107,73.924 299.107,81.947L299.107,91.678C299.107,98.681 302.348,103.202 308.839,105.251L313.448,106.531C319.934,108.924 323.179,113.533 323.179,120.36M323.179,47.888L371.067,47.888L371.067,0L323.179,0L323.179,47.888ZM421.26,50.192L421.26,219.977L469.148,219.977L469.148,0L409.224,0C401.197,0 397.188,3.929 397.188,11.78L397.188,21.511C397.188,28.513 400.429,33.123 406.919,35.34L411.273,36.62C417.931,38.669 421.26,43.194 421.26,50.192M526.511,223.562C534.361,223.562 540.852,221.041 545.973,216.007C551.095,210.974 553.656,204.528 553.656,196.673C553.656,188.822 551.095,182.376 545.973,177.339C540.852,172.305 534.361,169.784 526.511,169.784C518.828,169.784 512.426,172.305 507.304,177.339C502.183,182.376 499.622,188.822 499.622,196.673C499.622,204.528 502.183,210.974 507.304,216.007C512.426,221.041 518.828,223.562 526.511,223.562" style="fill:white;fill-rule:nonzero;"/>
    </g>
</svg>
